<svg xmlns="http://www.w3.org/2000/svg" xmlns:xlink="http://www.w3.org/1999/xlink" xmlns:lucid="lucid" width="1470.72" height="813.49"><g transform="translate(780 112.9936204399807)" lucid:page-tab-id="0_0"><path d="M315.82 383.5c16.57 0 30 13.43 30 30v74.32c0 16.57-13.43 30-30 30H190c-16.57 0-30-13.43-30-30V413.5c0-16.57 13.43-30 30-30zM76.26 383.5c16.57 0 30 13.43 30 30v77.33c0 16.56-13.43 30-30 30h-118.9c-16.57 0-30-13.44-30-30V413.5c0-16.57 13.43-30 30-30z" stroke="#3a414a" fill="#fcfcca"/><path d="M-80-74a6 6 0 0 1 6-6H84a6 6 0 0 1 6 6V9a6 6 0 0 1-6 6H-74a6 6 0 0 1-6-6z" stroke="#3a414a" fill="#fff"/><use xlink:href="#a" transform="matrix(1,0,0,1,-72,-72) translate(-2.290123456790127 43.94444444444444)"/><path d="M-75 65a6 6 0 0 1 6-6H79a6 6 0 0 1 6 6v109a6 6 0 0 1-6 6H-69a6 6 0 0 1-6-6z" stroke="#3a414a" fill="#fff"/><use xlink:href="#b" transform="matrix(1,0,0,1,-67,67) translate(0.26296296296295907 56.233333333333334)"/><path d="M106.26 66a6 6 0 0 1 6-6h227.56a6 6 0 0 1 6 6v109a6 6 0 0 1-6 6H112.26a6 6 0 0 1-6-6z" stroke="#3a414a" fill="#fff"/><use xlink:href="#c" transform="matrix(1,0,0,1,114.26388888888913,68) translate(-1.1407407407407675 56.233333333333334)"/><path d="M409.78 66a6 6 0 0 1 6-6h268.44a6 6 0 0 1 6 6v109a6 6 0 0 1-6 6H415.78a6 6 0 0 1-6-6z" stroke="#3a414a" fill="#fff"/><use xlink:href="#d" transform="matrix(1,0,0,1,417.777777777778,68) translate(11.65925925925923 56.233333333333334)"/><path d="M5 58V31.88" stroke="#3a414a" fill="none"/><path d="M5.5 58.5h-1V58h1z" stroke="#3a414a" stroke-width=".05" fill="#3a414a"/><path d="M5 17.12l4.63 14.26H.37z" stroke="#3a414a" fill="#3a414a"/><path d="M-560 65a6 6 0 0 1 6-6h407.56a6 6 0 0 1 6 6v95a6 6 0 0 1-6 6H-554a6 6 0 0 1-6-6z" stroke="#3a414a" fill="#fff"/><path d="M-560 101.67h419.56" stroke="#3a414a" fill="none"/><use xlink:href="#e" transform="matrix(1,0,0,1,-552,67) translate(117.83333333333334 17.944444444444443)"/><use xlink:href="#f" transform="matrix(1,0,0,1,-552,67) translate(172.0308641975309 17.944444444444443)"/><use xlink:href="#g" transform="matrix(1,0,0,1,-552,67) translate(225.7962962962963 17.944444444444443)"/><use xlink:href="#h" transform="matrix(1,0,0,1,-548,109.66666666666667) translate(0 28.944444444444443)"/><path d="M-350.22 58v-84.5a6 6 0 0 1 6-6h247.34" stroke="#3a414a" fill="none"/><path d="M-349.72 58.5h-1V58h1z" stroke="#3a414a" stroke-width=".05" fill="#3a414a"/><path d="M-82.12-32.5l-14.26 4.64v-9.27z" stroke="#3a414a" fill="#3a414a"/><path d="M226.04 59v-85.5a6 6 0 0 0-6-6H106.88" stroke="#3a414a" fill="none"/><path d="M226.54 59.5h-1V59h1z" stroke="#3a414a" stroke-width=".05" fill="#3a414a"/><path d="M92.12-32.5l14.26-4.63v9.27z" stroke="#3a414a" fill="#3a414a"/><path d="M550 59v-85.5a6 6 0 0 0-6-6H106.88" stroke="#3a414a" fill="none"/><path d="M550.5 59.5h-1V59h1z" stroke="#3a414a" stroke-width=".05" fill="#3a414a"/><path d="M92.12-32.5l14.26-4.63v9.27z" stroke="#3a414a" fill="#3a414a"/><path d="M630 383.5c16.57 0 30 13.43 30 30v77.33c0 16.56-13.43 30-30 30H470c-16.57 0-30-13.44-30-30V413.5c0-16.57 13.43-30 30-30z" stroke="#3a414a" fill="#fcfcca"/><path d="M453.9 446.72a6 6 0 0 1 6-6h153a6 6 0 0 1 6 6v22.33a6 6 0 0 1-6 6h-153a6 6 0 0 1-6-6z" fill="none"/><use xlink:href="#i" transform="matrix(1,0,0,1,453.9027777777776,440.7193396949672) translate(13.79629629629629 21.944444444444443)"/><use xlink:href="#j" transform="matrix(1,0,0,1,453.9027777777776,440.7193396949672) translate(103.61111111111111 21.944444444444443)"/><path d="M180 439.5a6 6 0 0 1 6-6h130.5a6 6 0 0 1 6 6v17.33a6 6 0 0 1-6 6H186a6 6 0 0 1-6-6z" fill="none"/><use xlink:href="#k" transform="matrix(1,0,0,1,179.99999999999986,433.50008835806887) translate(11.962962962962976 19.444444444444443)"/><use xlink:href="#j" transform="matrix(1,0,0,1,179.99999999999986,433.50008835806887) translate(83.44444444444444 19.444444444444443)"/><path d="M-62.72 433.5a6 6 0 0 1 6-6h153a6 6 0 0 1 6 6v22.33a6 6 0 0 1-6 6h-153a6 6 0 0 1-6-6z" fill="none"/><use xlink:href="#l" transform="matrix(1,0,0,1,-62.72222222222183,427.49741456127737) translate(24.19753086419753 21.944444444444443)"/><use xlink:href="#j" transform="matrix(1,0,0,1,-62.72222222222183,427.49741456127737) translate(93.20987654320987 21.944444444444443)"/><path d="M16.8 382.5V196.88" stroke="#3a414a" fill="none"/><path d="M17.3 383h-1v-.5h1z" stroke="#3a414a" stroke-width=".05" fill="#3a414a"/><path d="M16.8 182.12l4.65 14.26h-9.27z" stroke="#3a414a" fill="#3a414a"/><path d="M-30.67 181v185.62" stroke="#3a414a" fill="none"/><path d="M-30.17 181h-1v-.5h1z" stroke="#3a414a" stroke-width=".05" fill="#3a414a"/><path d="M-30.67 381.38l-4.63-14.26h9.27z" stroke="#3a414a" fill="#3a414a"/><path d="M252.9 382.5v-99.93a.32.32 0 0 0-.3-.32.32.32 0 0 1-.34-.32v-84.05" stroke="#3a414a" fill="none"/><path d="M253.4 383h-1v-.5h1z" stroke="#3a414a" stroke-width=".05" fill="#3a414a"/><path d="M252.26 183.12l4.64 14.26h-9.27z" stroke="#3a414a" fill="#3a414a"/><path d="M215.33 182v184.62" stroke="#3a414a" fill="none"/><path d="M215.83 182h-1v-.5h1z" stroke="#3a414a" stroke-width=".05" fill="#3a414a"/><path d="M215.33 381.38l-4.63-14.26h9.27z" stroke="#3a414a" fill="#3a414a"/><path d="M559.78 382.5V197.88" stroke="#3a414a" fill="none"/><path d="M560.28 383h-1v-.5h1z" stroke="#3a414a" stroke-width=".05" fill="#3a414a"/><path d="M559.78 183.12l4.63 14.26h-9.26z" stroke="#3a414a" fill="#3a414a"/><path d="M507.33 182v184.62" stroke="#3a414a" fill="none"/><path d="M507.83 182h-1v-.5h1z" stroke="#3a414a" stroke-width=".05" fill="#3a414a"/><path d="M507.33 381.38l-4.63-14.26h9.27z" stroke="#3a414a" fill="#3a414a"/><path d="M-150.44 333.5c16.56 0 30 13.43 30 30v260c0 16.57-13.44 30-30 30H-550c-16.57 0-30-13.43-30-30v-260c0-16.57 13.43-30 30-30z" stroke="#3a414a" fill="#dfe3e8"/><use xlink:href="#m" transform="matrix(1,0,0,1,-542,341.50008835806887) translate(152.58641975308643 17.944444444444443)"/><path d="M-178.22 400.72c16.57 0 30 13.43 30 30v130c0 16.57-13.43 30-30 30H-490c-16.57 0-30-13.43-30-30v-130c0-16.57 13.43-30 30-30z" stroke="#3a414a" fill="#ffd9d9"/><use xlink:href="#e" transform="matrix(1,0,0,1,-482,408.7193396949673) translate(97.10493827160494 17.944444444444443)"/><use xlink:href="#j" transform="matrix(1,0,0,1,-482,408.7193396949673) translate(151.30246913580248 17.944444444444443)"/><path d="M-238.22 477.82c16.57 0 30 13.44 30 30v19.57c0 16.56-13.43 30-30 30h-191.56c-16.57 0-30-13.44-30-30V507.8c0-16.56 13.43-30 30-30z" stroke="#3a414a" fill="#fcfcca"/><path d="M-520.5 495.72" stroke="#3a414a" fill="none"/><path stroke="#3a414a" stroke-width=".05" fill="#3a414a"/><path d="M-522.12 495.72l-14.26 4.63v-9.27z" stroke="#3a414a" fill="#3a414a"/><path d="M-488.22 493.6a6 6 0 0 1 6-6h228a6 6 0 0 1 6 6v48a6 6 0 0 1-6 6h-228a6 6 0 0 1-6-6z" fill="none"/><use xlink:href="#n" transform="matrix(1,0,0,1,-488.22222222222194,487.6068916854606) translate(56.543209876543216 34.44444444444444)"/><use xlink:href="#o" transform="matrix(1,0,0,1,-488.22222222222194,487.6068916854606) translate(118.20987654320987 34.44444444444444)"/><path d="M-236.67 167v216.83" stroke="#3a414a" fill="none"/><path d="M-236.17 167h-1v-.5h1z" stroke="#3a414a" stroke-width=".05" fill="#3a414a"/><path d="M-236.67 398.6l-4.63-14.27h9.27z" stroke="#3a414a" fill="#3a414a"/><path d="M-193.9 399.72V182.88" stroke="#3a414a" fill="none"/><path d="M-193.4 400.22h-1v-.5h1z" stroke="#3a414a" stroke-width=".05" fill="#3a414a"/><path d="M-193.9 168.12l4.64 14.26h-9.27z" stroke="#3a414a" fill="#3a414a"/><path d="M-780-106.5a6 6 0 0 1 6-6h168a6 6 0 0 1 6 6V214a6 6 0 0 1-6 6h-168a6 6 0 0 1-6-6z" fill="none"/><path d="M-600 220c-5.52 0-10-4.48-10-10V63.75c0-5.52-4.48-10-10-10 5.52 0 10-4.48 10-10V-102.5c0-5.52 4.48-10 10-10" stroke="#3a414a" fill="none"/><g><use xlink:href="#p" transform="matrix(1,0,0,1,-775,-107.5) translate(13.456790123456784 165.94444444444443)"/></g><path d="M-720 286a6 6 0 0 1 6-6h108a6 6 0 0 1 6 6v408a6 6 0 0 1-6 6h-108a6 6 0 0 1-6-6z" fill="none"/><path d="M-600 700c-5.52 0-10-4.48-10-10V500c0-5.52-4.48-10-10-10 5.52 0 10-4.48 10-10V290c0-5.52 4.48-10 10-10" stroke="#3a414a" fill="none"/><g><use xlink:href="#q" transform="matrix(1,0,0,1,-715,285) translate(21.296296296296305 209.44444444444443)"/></g><defs><path fill="#3a414a" d="M137 0h-34L2-248h35l83 218 83-218h36" id="r"/><path fill="#3a414a" d="M24-231v-30h32v30H24zM24 0v-190h32V0H24" id="s"/><path fill="#3a414a" d="M100-194c63 0 86 42 84 106H49c0 40 14 67 53 68 26 1 43-12 49-29l28 8c-11 28-37 45-77 45C44 4 14-33 15-96c1-61 26-98 85-98zm52 81c6-60-76-77-97-28-3 7-6 17-6 28h103" id="t"/><path fill="#3a414a" d="M206 0h-36l-40-164L89 0H53L-1-190h32L70-26l43-164h34l41 164 42-164h31" id="u"/><path fill="#3a414a" d="M240 0l2-218c-23 76-54 145-80 218h-23L58-218 59 0H30v-248h44l77 211c21-75 51-140 76-211h43V0h-30" id="v"/><path fill="#3a414a" d="M100-194c62-1 85 37 85 99 1 63-27 99-86 99S16-35 15-95c0-66 28-99 85-99zM99-20c44 1 53-31 53-75 0-43-8-75-51-75s-53 32-53 75 10 74 51 75" id="w"/><path fill="#3a414a" d="M85-194c31 0 48 13 60 33l-1-100h32l1 261h-30c-2-10 0-23-3-31C134-8 116 4 85 4 32 4 16-35 15-94c0-66 23-100 70-100zm9 24c-40 0-46 34-46 75 0 40 6 74 45 74 42 0 51-32 51-76 0-42-9-74-50-73" id="x"/><path fill="#3a414a" d="M24 0v-261h32V0H24" id="y"/><path fill="#3a414a" d="M160-131c35 5 61 23 61 61C221 17 115-2 30 0v-248c76 3 177-17 177 60 0 33-19 50-47 57zm-97-11c50-1 110 9 110-42 0-47-63-36-110-37v79zm0 115c55-2 124 14 124-45 0-56-70-42-124-44v89" id="z"/><path fill="#3a414a" d="M141-36C126-15 110 5 73 4 37 3 15-17 15-53c-1-64 63-63 125-63 3-35-9-54-41-54-24 1-41 7-42 31l-33-3c5-37 33-52 76-52 45 0 72 20 72 64v82c-1 20 7 32 28 27v20c-31 9-61-2-59-35zM48-53c0 20 12 33 32 33 41-3 63-29 60-74-43 2-92-5-92 41" id="A"/><path fill="#3a414a" d="M135-143c-3-34-86-38-87 0 15 53 115 12 119 90S17 21 10-45l28-5c4 36 97 45 98 0-10-56-113-15-118-90-4-57 82-63 122-42 12 7 21 19 24 35" id="B"/><g id="a"><use transform="matrix(0.06172839506172839,0,0,0.06172839506172839,0,0)" xlink:href="#r"/><use transform="matrix(0.06172839506172839,0,0,0.06172839506172839,14.382716049382715,0)" xlink:href="#s"/><use transform="matrix(0.06172839506172839,0,0,0.06172839506172839,19.25925925925926,0)" xlink:href="#t"/><use transform="matrix(0.06172839506172839,0,0,0.06172839506172839,31.604938271604937,0)" xlink:href="#u"/><use transform="matrix(0.06172839506172839,0,0,0.06172839506172839,47.59259259259259,0)" xlink:href="#v"/><use transform="matrix(0.06172839506172839,0,0,0.06172839506172839,66.04938271604938,0)" xlink:href="#w"/><use transform="matrix(0.06172839506172839,0,0,0.06172839506172839,78.39506172839506,0)" xlink:href="#x"/><use transform="matrix(0.06172839506172839,0,0,0.06172839506172839,90.74074074074075,0)" xlink:href="#y"/><use transform="matrix(0.06172839506172839,0,0,0.06172839506172839,95.61728395061729,0)" xlink:href="#t"/><use transform="matrix(0.06172839506172839,0,0,0.06172839506172839,107.96296296296298,0)" xlink:href="#z"/><use transform="matrix(0.06172839506172839,0,0,0.06172839506172839,122.77777777777779,0)" xlink:href="#A"/><use transform="matrix(0.06172839506172839,0,0,0.06172839506172839,135.12345679012347,0)" xlink:href="#B"/><use transform="matrix(0.06172839506172839,0,0,0.06172839506172839,146.23456790123458,0)" xlink:href="#t"/></g><path fill="#4ec9b0" d="M205 0l-28-72H64L36 0H1l101-248h38L239 0h-34zm-38-99l-47-123c-12 45-31 82-46 123h93" id="C"/><path fill="#4ec9b0" d="M85-194c31 0 48 13 60 33l-1-100h32l1 261h-30c-2-10 0-23-3-31C134-8 116 4 85 4 32 4 16-35 15-94c0-66 23-100 70-100zm9 24c-40 0-46 34-46 75 0 40 6 74 45 74 42 0 51-32 51-76 0-42-9-74-50-73" id="D"/><path fill="#4ec9b0" d="M210-169c-67 3-38 105-44 169h-31v-121c0-29-5-50-35-48C34-165 62-65 56 0H25l-1-190h30c1 10-1 24 2 32 10-44 99-50 107 0 11-21 27-35 58-36 85-2 47 119 55 194h-31v-121c0-29-5-49-35-48" id="E"/><path fill="#4ec9b0" d="M24-231v-30h32v30H24zM24 0v-190h32V0H24" id="F"/><path fill="#4ec9b0" d="M117-194c89-4 53 116 60 194h-32v-121c0-31-8-49-39-48C34-167 62-67 57 0H25l-1-190h30c1 10-1 24 2 32 11-22 29-35 61-36" id="G"/><path fill="#4ec9b0" d="M137 0h-34L2-248h35l83 218 83-218h36" id="H"/><path fill="#4ec9b0" d="M100-194c63 0 86 42 84 106H49c0 40 14 67 53 68 26 1 43-12 49-29l28 8c-11 28-37 45-77 45C44 4 14-33 15-96c1-61 26-98 85-98zm52 81c6-60-76-77-97-28-3 7-6 17-6 28h103" id="I"/><path fill="#4ec9b0" d="M206 0h-36l-40-164L89 0H53L-1-190h32L70-26l43-164h34l41 164 42-164h31" id="J"/><path fill="#4ec9b0" d="M240 0l2-218c-23 76-54 145-80 218h-23L58-218 59 0H30v-248h44l77 211c21-75 51-140 76-211h43V0h-30" id="K"/><path fill="#4ec9b0" d="M100-194c62-1 85 37 85 99 1 63-27 99-86 99S16-35 15-95c0-66 28-99 85-99zM99-20c44 1 53-31 53-75 0-43-8-75-51-75s-53 32-53 75 10 74 51 75" id="L"/><path fill="#4ec9b0" d="M24 0v-261h32V0H24" id="M"/><g id="b"><use transform="matrix(0.05185185185185186,0,0,0.05185185185185186,0,0)" xlink:href="#C"/><use transform="matrix(0.05185185185185186,0,0,0.05185185185185186,12.444444444444446,0)" xlink:href="#D"/><use transform="matrix(0.05185185185185186,0,0,0.05185185185185186,22.814814814814817,0)" xlink:href="#E"/><use transform="matrix(0.05185185185185186,0,0,0.05185185185185186,38.31851851851852,0)" xlink:href="#F"/><use transform="matrix(0.05185185185185186,0,0,0.05185185185185186,42.41481481481482,0)" xlink:href="#G"/><use transform="matrix(0.05185185185185186,0,0,0.05185185185185186,52.78518518518519,0)" xlink:href="#H"/><use transform="matrix(0.05185185185185186,0,0,0.05185185185185186,64.86666666666667,0)" xlink:href="#F"/><use transform="matrix(0.05185185185185186,0,0,0.05185185185185186,68.96296296296298,0)" xlink:href="#I"/><use transform="matrix(0.05185185185185186,0,0,0.05185185185185186,79.33333333333334,0)" xlink:href="#J"/><use transform="matrix(0.05185185185185186,0,0,0.05185185185185186,92.76296296296297,0)" xlink:href="#K"/><use transform="matrix(0.05185185185185186,0,0,0.05185185185185186,108.26666666666668,0)" xlink:href="#L"/><use transform="matrix(0.05185185185185186,0,0,0.05185185185185186,118.63703703703705,0)" xlink:href="#D"/><use transform="matrix(0.05185185185185186,0,0,0.05185185185185186,129.0074074074074,0)" xlink:href="#I"/><use transform="matrix(0.05185185185185186,0,0,0.05185185185185186,139.3777777777778,0)" xlink:href="#M"/></g><path fill="#4ec9b0" d="M185-189c-5-48-123-54-124 2 14 75 158 14 163 119 3 78-121 87-175 55-17-10-28-26-33-46l33-7c5 56 141 63 141-1 0-78-155-14-162-118-5-82 145-84 179-34 5 7 8 16 11 25" id="N"/><path fill="#4ec9b0" d="M114-163C36-179 61-72 57 0H25l-1-190h30c1 12-1 29 2 39 6-27 23-49 58-41v29" id="O"/><path fill="#4ec9b0" d="M108 0H70L1-190h34L89-25l56-165h34" id="P"/><path fill="#4ec9b0" d="M212-179c-10-28-35-45-73-45-59 0-87 40-87 99 0 60 29 101 89 101 43 0 62-24 78-52l27 14C228-24 195 4 139 4 59 4 22-46 18-125c-6-104 99-153 187-111 19 9 31 26 39 46" id="Q"/><path fill="#4ec9b0" d="M101-234c-31-9-42 10-38 44h38v23H63V0H32v-167H5v-23h27c-7-52 17-82 69-68v24" id="R"/><path fill="#4ec9b0" d="M177-190C167-65 218 103 67 71c-23-6-38-20-44-43l32-5c15 47 100 32 89-28v-30C133-14 115 1 83 1 29 1 15-40 15-95c0-56 16-97 71-98 29-1 48 16 59 35 1-10 0-23 2-32h30zM94-22c36 0 50-32 50-73 0-42-14-75-50-75-39 0-46 34-46 75s6 73 46 73" id="S"/><path fill="#4ec9b0" d="M84 4C-5 8 30-112 23-190h32v120c0 31 7 50 39 49 72-2 45-101 50-169h31l1 190h-30c-1-10 1-25-2-33-11 22-28 36-60 37" id="T"/><g id="c"><use transform="matrix(0.05185185185185186,0,0,0.05185185185185186,0,0)" xlink:href="#N"/><use transform="matrix(0.05185185185185186,0,0,0.05185185185185186,12.444444444444446,0)" xlink:href="#I"/><use transform="matrix(0.05185185185185186,0,0,0.05185185185185186,22.814814814814817,0)" xlink:href="#O"/><use transform="matrix(0.05185185185185186,0,0,0.05185185185185186,28.985185185185188,0)" xlink:href="#P"/><use transform="matrix(0.05185185185185186,0,0,0.05185185185185186,38.31851851851852,0)" xlink:href="#I"/><use transform="matrix(0.05185185185185186,0,0,0.05185185185185186,48.6888888888889,0)" xlink:href="#O"/><use transform="matrix(0.05185185185185186,0,0,0.05185185185185186,54.85925925925927,0)" xlink:href="#Q"/><use transform="matrix(0.05185185185185186,0,0,0.05185185185185186,68.28888888888889,0)" xlink:href="#L"/><use transform="matrix(0.05185185185185186,0,0,0.05185185185185186,78.65925925925926,0)" xlink:href="#G"/><use transform="matrix(0.05185185185185186,0,0,0.05185185185185186,89.02962962962962,0)" xlink:href="#R"/><use transform="matrix(0.05185185185185186,0,0,0.05185185185185186,94.21481481481482,0)" xlink:href="#F"/><use transform="matrix(0.05185185185185186,0,0,0.05185185185185186,98.31111111111112,0)" xlink:href="#S"/><use transform="matrix(0.05185185185185186,0,0,0.05185185185185186,108.6814814814815,0)" xlink:href="#T"/><use transform="matrix(0.05185185185185186,0,0,0.05185185185185186,119.05185185185184,0)" xlink:href="#O"/><use transform="matrix(0.05185185185185186,0,0,0.05185185185185186,125.22222222222223,0)" xlink:href="#I"/><use transform="matrix(0.05185185185185186,0,0,0.05185185185185186,135.5925925925926,0)" xlink:href="#H"/><use transform="matrix(0.05185185185185186,0,0,0.05185185185185186,147.6740740740741,0)" xlink:href="#F"/><use transform="matrix(0.05185185185185186,0,0,0.05185185185185186,151.7703703703704,0)" xlink:href="#I"/><use transform="matrix(0.05185185185185186,0,0,0.05185185185185186,162.14074074074077,0)" xlink:href="#J"/><use transform="matrix(0.05185185185185186,0,0,0.05185185185185186,175.5703703703704,0)" xlink:href="#K"/><use transform="matrix(0.05185185185185186,0,0,0.05185185185185186,191.0740740740741,0)" xlink:href="#L"/><use transform="matrix(0.05185185185185186,0,0,0.05185185185185186,201.44444444444449,0)" xlink:href="#D"/><use transform="matrix(0.05185185185185186,0,0,0.05185185185185186,211.81481481481487,0)" xlink:href="#I"/><use transform="matrix(0.05185185185185186,0,0,0.05185185185185186,222.18518518518525,0)" xlink:href="#M"/></g><path fill="#4ec9b0" d="M127-220V0H93v-220H8v-28h204v28h-85" id="U"/><path fill="#4ec9b0" d="M141-36C126-15 110 5 73 4 37 3 15-17 15-53c-1-64 63-63 125-63 3-35-9-54-41-54-24 1-41 7-42 31l-33-3c5-37 33-52 76-52 45 0 72 20 72 64v82c-1 20 7 32 28 27v20c-31 9-61-2-59-35zM48-53c0 20 12 33 32 33 41-3 63-29 60-74-43 2-92-5-92 41" id="V"/><g id="d"><use transform="matrix(0.05185185185185186,0,0,0.05185185185185186,0,0)" xlink:href="#U"/><use transform="matrix(0.05185185185185186,0,0,0.05185185185185186,9.281481481481482,0)" xlink:href="#I"/><use transform="matrix(0.05185185185185186,0,0,0.05185185185185186,19.651851851851852,0)" xlink:href="#O"/><use transform="matrix(0.05185185185185186,0,0,0.05185185185185186,25.822222222222223,0)" xlink:href="#E"/><use transform="matrix(0.05185185185185186,0,0,0.05185185185185186,41.32592592592593,0)" xlink:href="#F"/><use transform="matrix(0.05185185185185186,0,0,0.05185185185185186,45.422222222222224,0)" xlink:href="#G"/><use transform="matrix(0.05185185185185186,0,0,0.05185185185185186,55.7925925925926,0)" xlink:href="#V"/><use transform="matrix(0.05185185185185186,0,0,0.05185185185185186,66.16296296296296,0)" xlink:href="#M"/><use transform="matrix(0.05185185185185186,0,0,0.05185185185185186,70.25925925925927,0)" xlink:href="#Q"/><use transform="matrix(0.05185185185185186,0,0,0.05185185185185186,83.6888888888889,0)" xlink:href="#L"/><use transform="matrix(0.05185185185185186,0,0,0.05185185185185186,94.05925925925926,0)" xlink:href="#G"/><use transform="matrix(0.05185185185185186,0,0,0.05185185185185186,104.42962962962963,0)" xlink:href="#R"/><use transform="matrix(0.05185185185185186,0,0,0.05185185185185186,109.61481481481482,0)" xlink:href="#F"/><use transform="matrix(0.05185185185185186,0,0,0.05185185185185186,113.71111111111112,0)" xlink:href="#S"/><use transform="matrix(0.05185185185185186,0,0,0.05185185185185186,124.08148148148149,0)" xlink:href="#T"/><use transform="matrix(0.05185185185185186,0,0,0.05185185185185186,134.45185185185187,0)" xlink:href="#O"/><use transform="matrix(0.05185185185185186,0,0,0.05185185185185186,140.62222222222223,0)" xlink:href="#I"/><use transform="matrix(0.05185185185185186,0,0,0.05185185185185186,150.99259259259262,0)" xlink:href="#H"/><use transform="matrix(0.05185185185185186,0,0,0.05185185185185186,163.0740740740741,0)" xlink:href="#F"/><use transform="matrix(0.05185185185185186,0,0,0.05185185185185186,167.1703703703704,0)" xlink:href="#I"/><use transform="matrix(0.05185185185185186,0,0,0.05185185185185186,177.54074074074077,0)" xlink:href="#J"/><use transform="matrix(0.05185185185185186,0,0,0.05185185185185186,190.9703703703704,0)" xlink:href="#K"/><use transform="matrix(0.05185185185185186,0,0,0.05185185185185186,206.4740740740741,0)" xlink:href="#L"/><use transform="matrix(0.05185185185185186,0,0,0.05185185185185186,216.84444444444452,0)" xlink:href="#D"/><use transform="matrix(0.05185185185185186,0,0,0.05185185185185186,227.21481481481487,0)" xlink:href="#I"/><use transform="matrix(0.05185185185185186,0,0,0.05185185185185186,237.58518518518525,0)" xlink:href="#M"/></g><path fill="#3a414a" d="M117-194c89-4 53 116 60 194h-32v-121c0-31-8-49-39-48C34-167 62-67 57 0H25l-1-190h30c1 10-1 24 2 32 11-22 29-35 61-36" id="W"/><g id="e"><use transform="matrix(0.06172839506172839,0,0,0.06172839506172839,0,0)" xlink:href="#v"/><use transform="matrix(0.06172839506172839,0,0,0.06172839506172839,18.456790123456788,0)" xlink:href="#A"/><use transform="matrix(0.06172839506172839,0,0,0.06172839506172839,30.80246913580247,0)" xlink:href="#s"/><use transform="matrix(0.06172839506172839,0,0,0.06172839506172839,35.67901234567901,0)" xlink:href="#W"/></g><g id="f"><use transform="matrix(0.06172839506172839,0,0,0.06172839506172839,0,0)" xlink:href="#r"/><use transform="matrix(0.06172839506172839,0,0,0.06172839506172839,14.382716049382715,0)" xlink:href="#s"/><use transform="matrix(0.06172839506172839,0,0,0.06172839506172839,19.25925925925926,0)" xlink:href="#t"/><use transform="matrix(0.06172839506172839,0,0,0.06172839506172839,31.604938271604937,0)" xlink:href="#u"/></g><g id="g"><use transform="matrix(0.06172839506172839,0,0,0.06172839506172839,0,0)" xlink:href="#v"/><use transform="matrix(0.06172839506172839,0,0,0.06172839506172839,18.456790123456788,0)" xlink:href="#w"/><use transform="matrix(0.06172839506172839,0,0,0.06172839506172839,30.80246913580247,0)" xlink:href="#x"/><use transform="matrix(0.06172839506172839,0,0,0.06172839506172839,43.148148148148145,0)" xlink:href="#t"/><use transform="matrix(0.06172839506172839,0,0,0.06172839506172839,55.49382716049382,0)" xlink:href="#y"/></g><path fill="#3a414a" d="M118-107v75H92v-75H18v-26h74v-75h26v75h74v26h-74" id="X"/><path fill="#3a414a" d="M212-179c-10-28-35-45-73-45-59 0-87 40-87 99 0 60 29 101 89 101 43 0 62-24 78-52l27 14C228-24 195 4 139 4 59 4 22-46 18-125c-6-104 99-153 187-111 19 9 31 26 39 46" id="Y"/><path fill="#3a414a" d="M84 4C-5 8 30-112 23-190h32v120c0 31 7 50 39 49 72-2 45-101 50-169h31l1 190h-30c-1-10 1-25-2-33-11 22-28 36-60 37" id="Z"/><path fill="#3a414a" d="M114-163C36-179 61-72 57 0H25l-1-190h30c1 12-1 29 2 39 6-27 23-49 58-41v29" id="aa"/><path fill="#3a414a" d="M59-47c-2 24 18 29 38 22v24C64 9 27 4 27-40v-127H5v-23h24l9-43h21v43h35v23H59v120" id="ab"/><path fill="#3a414a" d="M33-154v-36h34v36H33zM33 0v-36h34V0H33" id="ac"/><g id="h"><use transform="matrix(0.06172839506172839,0,0,0.06172839506172839,0,0)" xlink:href="#X"/><use transform="matrix(0.06172839506172839,0,0,0.06172839506172839,12.962962962962962,0)" xlink:href="#Y"/><use transform="matrix(0.06172839506172839,0,0,0.06172839506172839,28.950617283950614,0)" xlink:href="#Z"/><use transform="matrix(0.06172839506172839,0,0,0.06172839506172839,41.29629629629629,0)" xlink:href="#aa"/><use transform="matrix(0.06172839506172839,0,0,0.06172839506172839,48.64197530864197,0)" xlink:href="#aa"/><use transform="matrix(0.06172839506172839,0,0,0.06172839506172839,55.987654320987644,0)" xlink:href="#t"/><use transform="matrix(0.06172839506172839,0,0,0.06172839506172839,68.33333333333333,0)" xlink:href="#W"/><use transform="matrix(0.06172839506172839,0,0,0.06172839506172839,80.67901234567901,0)" xlink:href="#ab"/><use transform="matrix(0.06172839506172839,0,0,0.06172839506172839,86.85185185185185,0)" xlink:href="#r"/><use transform="matrix(0.06172839506172839,0,0,0.06172839506172839,101.23456790123456,0)" xlink:href="#s"/><use transform="matrix(0.06172839506172839,0,0,0.06172839506172839,106.1111111111111,0)" xlink:href="#t"/><use transform="matrix(0.06172839506172839,0,0,0.06172839506172839,118.45679012345678,0)" xlink:href="#u"/><use transform="matrix(0.06172839506172839,0,0,0.06172839506172839,134.44444444444443,0)" xlink:href="#v"/><use transform="matrix(0.06172839506172839,0,0,0.06172839506172839,152.9012345679012,0)" xlink:href="#w"/><use transform="matrix(0.06172839506172839,0,0,0.06172839506172839,165.24691358024688,0)" xlink:href="#x"/><use transform="matrix(0.06172839506172839,0,0,0.06172839506172839,177.59259259259255,0)" xlink:href="#t"/><use transform="matrix(0.06172839506172839,0,0,0.06172839506172839,189.93827160493822,0)" xlink:href="#y"/><use transform="matrix(0.06172839506172839,0,0,0.06172839506172839,194.81481481481475,0)" xlink:href="#ac"/><use transform="matrix(0.06172839506172839,0,0,0.06172839506172839,200.9876543209876,0)" xlink:href="#r"/><use transform="matrix(0.06172839506172839,0,0,0.06172839506172839,215.3703703703703,0)" xlink:href="#s"/><use transform="matrix(0.06172839506172839,0,0,0.06172839506172839,220.24691358024683,0)" xlink:href="#t"/><use transform="matrix(0.06172839506172839,0,0,0.06172839506172839,232.5925925925925,0)" xlink:href="#u"/><use transform="matrix(0.06172839506172839,0,0,0.06172839506172839,248.58024691358014,0)" xlink:href="#v"/><use transform="matrix(0.06172839506172839,0,0,0.06172839506172839,267.03703703703695,0)" xlink:href="#w"/><use transform="matrix(0.06172839506172839,0,0,0.06172839506172839,279.3827160493826,0)" xlink:href="#x"/><use transform="matrix(0.06172839506172839,0,0,0.06172839506172839,291.7283950617283,0)" xlink:href="#t"/><use transform="matrix(0.06172839506172839,0,0,0.06172839506172839,304.07407407407396,0)" xlink:href="#y"/><use transform="matrix(0.06172839506172839,0,0,0.06172839506172839,308.9506172839505,0)" xlink:href="#z"/><use transform="matrix(0.06172839506172839,0,0,0.06172839506172839,323.76543209876536,0)" xlink:href="#A"/><use transform="matrix(0.06172839506172839,0,0,0.06172839506172839,336.11111111111103,0)" xlink:href="#B"/><use transform="matrix(0.06172839506172839,0,0,0.06172839506172839,347.2222222222221,0)" xlink:href="#t"/></g><path fill="#3a414a" d="M127-220V0H93v-220H8v-28h204v28h-85" id="ad"/><path fill="#3a414a" d="M210-169c-67 3-38 105-44 169h-31v-121c0-29-5-50-35-48C34-165 62-65 56 0H25l-1-190h30c1 10-1 24 2 32 10-44 99-50 107 0 11-21 27-35 58-36 85-2 47 119 55 194h-31v-121c0-29-5-49-35-48" id="ae"/><g id="i"><use transform="matrix(0.06172839506172839,0,0,0.06172839506172839,0,0)" xlink:href="#ad"/><use transform="matrix(0.06172839506172839,0,0,0.06172839506172839,11.049382716049381,0)" xlink:href="#t"/><use transform="matrix(0.06172839506172839,0,0,0.06172839506172839,23.39506172839506,0)" xlink:href="#aa"/><use transform="matrix(0.06172839506172839,0,0,0.06172839506172839,30.74074074074074,0)" xlink:href="#ae"/><use transform="matrix(0.06172839506172839,0,0,0.06172839506172839,49.19753086419753,0)" xlink:href="#s"/><use transform="matrix(0.06172839506172839,0,0,0.06172839506172839,54.074074074074076,0)" xlink:href="#W"/><use transform="matrix(0.06172839506172839,0,0,0.06172839506172839,66.41975308641976,0)" xlink:href="#A"/><use transform="matrix(0.06172839506172839,0,0,0.06172839506172839,78.76543209876544,0)" xlink:href="#y"/></g><g id="j"><use transform="matrix(0.06172839506172839,0,0,0.06172839506172839,0,0)" xlink:href="#r"/><use transform="matrix(0.06172839506172839,0,0,0.06172839506172839,14.382716049382715,0)" xlink:href="#s"/><use transform="matrix(0.06172839506172839,0,0,0.06172839506172839,19.25925925925926,0)" xlink:href="#t"/><use transform="matrix(0.06172839506172839,0,0,0.06172839506172839,31.604938271604937,0)" xlink:href="#u"/></g><path fill="#3a414a" d="M185-189c-5-48-123-54-124 2 14 75 158 14 163 119 3 78-121 87-175 55-17-10-28-26-33-46l33-7c5 56 141 63 141-1 0-78-155-14-162-118-5-82 145-84 179-34 5 7 8 16 11 25" id="af"/><path fill="#3a414a" d="M108 0H70L1-190h34L89-25l56-165h34" id="ag"/><g id="k"><use transform="matrix(0.06172839506172839,0,0,0.06172839506172839,0,0)" xlink:href="#af"/><use transform="matrix(0.06172839506172839,0,0,0.06172839506172839,14.814814814814813,0)" xlink:href="#t"/><use transform="matrix(0.06172839506172839,0,0,0.06172839506172839,27.160493827160494,0)" xlink:href="#aa"/><use transform="matrix(0.06172839506172839,0,0,0.06172839506172839,34.50617283950617,0)" xlink:href="#ag"/><use transform="matrix(0.06172839506172839,0,0,0.06172839506172839,45.61728395061728,0)" xlink:href="#t"/><use transform="matrix(0.06172839506172839,0,0,0.06172839506172839,57.962962962962955,0)" xlink:href="#aa"/></g><path fill="#3a414a" d="M205 0l-28-72H64L36 0H1l101-248h38L239 0h-34zm-38-99l-47-123c-12 45-31 82-46 123h93" id="ah"/><g id="l"><use transform="matrix(0.06172839506172839,0,0,0.06172839506172839,0,0)" xlink:href="#ah"/><use transform="matrix(0.06172839506172839,0,0,0.06172839506172839,14.814814814814813,0)" xlink:href="#x"/><use transform="matrix(0.06172839506172839,0,0,0.06172839506172839,27.160493827160494,0)" xlink:href="#ae"/><use transform="matrix(0.06172839506172839,0,0,0.06172839506172839,45.61728395061728,0)" xlink:href="#s"/><use transform="matrix(0.06172839506172839,0,0,0.06172839506172839,50.49382716049382,0)" xlink:href="#W"/></g><path fill="#3a414a" d="M266 0h-40l-56-210L115 0H75L2-248h35L96-30l15-64 43-154h32l59 218 59-218h35" id="ai"/><g id="m"><use transform="matrix(0.06172839506172839,0,0,0.06172839506172839,0,0)" xlink:href="#ai"/><use transform="matrix(0.06172839506172839,0,0,0.06172839506172839,20.925925925925924,0)" xlink:href="#s"/><use transform="matrix(0.06172839506172839,0,0,0.06172839506172839,25.80246913580247,0)" xlink:href="#W"/><use transform="matrix(0.06172839506172839,0,0,0.06172839506172839,38.148148148148145,0)" xlink:href="#x"/><use transform="matrix(0.06172839506172839,0,0,0.06172839506172839,50.49382716049382,0)" xlink:href="#w"/><use transform="matrix(0.06172839506172839,0,0,0.06172839506172839,62.8395061728395,0)" xlink:href="#u"/></g><path fill="#3a414a" d="M30-248c87 1 191-15 191 75 0 78-77 80-158 76V0H30v-248zm33 125c57 0 124 11 124-50 0-59-68-47-124-48v98" id="aj"/><path fill="#3a414a" d="M96-169c-40 0-48 33-48 73s9 75 48 75c24 0 41-14 43-38l32 2c-6 37-31 61-74 61-59 0-76-41-82-99-10-93 101-131 147-64 4 7 5 14 7 22l-32 3c-4-21-16-35-41-35" id="ak"/><g id="n"><use transform="matrix(0.06172839506172839,0,0,0.06172839506172839,0,0)" xlink:href="#aj"/><use transform="matrix(0.06172839506172839,0,0,0.06172839506172839,14.814814814814813,0)" xlink:href="#y"/><use transform="matrix(0.06172839506172839,0,0,0.06172839506172839,19.691358024691354,0)" xlink:href="#A"/><use transform="matrix(0.06172839506172839,0,0,0.06172839506172839,32.03703703703703,0)" xlink:href="#ak"/><use transform="matrix(0.06172839506172839,0,0,0.06172839506172839,43.14814814814814,0)" xlink:href="#t"/></g><path fill="#3a414a" d="M197 0v-115H63V0H30v-248h33v105h134v-105h34V0h-34" id="al"/><g id="o"><use transform="matrix(0.06172839506172839,0,0,0.06172839506172839,0,0)" xlink:href="#al"/><use transform="matrix(0.06172839506172839,0,0,0.06172839506172839,15.987654320987653,0)" xlink:href="#w"/><use transform="matrix(0.06172839506172839,0,0,0.06172839506172839,28.333333333333332,0)" xlink:href="#y"/><use transform="matrix(0.06172839506172839,0,0,0.06172839506172839,33.20987654320987,0)" xlink:href="#x"/><use transform="matrix(0.06172839506172839,0,0,0.06172839506172839,45.55555555555555,0)" xlink:href="#t"/><use transform="matrix(0.06172839506172839,0,0,0.06172839506172839,57.90123456790123,0)" xlink:href="#aa"/></g><path fill="#3a414a" d="M147 0H94L2-248h55l64 206c17-72 42-137 63-206h54" id="am"/><path fill="#3a414a" d="M25-224v-37h50v37H25zM25 0v-190h50V0H25" id="an"/><path fill="#3a414a" d="M185-48c-13 30-37 53-82 52C43 2 14-33 14-96s30-98 90-98c62 0 83 45 84 108H66c0 31 8 55 39 56 18 0 30-7 34-22zm-45-69c5-46-57-63-70-21-2 6-4 13-4 21h74" id="ao"/><path fill="#3a414a" d="M231 0h-52l-39-155L100 0H48L-1-190h46L77-45c9-52 24-97 36-145h53l37 145 32-145h46" id="ap"/><path fill="#3a414a" d="M230 0l2-204L168 0h-37L68-204 70 0H24v-248h70l56 185 57-185h69V0h-46" id="aq"/><path fill="#3a414a" d="M110-194c64 0 96 36 96 99 0 64-35 99-97 99-61 0-95-36-95-99 0-62 34-99 96-99zm-1 164c35 0 45-28 45-65 0-40-10-65-43-65-34 0-45 26-45 65 0 36 10 65 43 65" id="ar"/><path fill="#3a414a" d="M88-194c31-1 46 15 58 34l-1-101h50l1 261h-48c-2-10 0-23-3-31C134-8 116 4 84 4 32 4 16-41 15-95c0-56 19-97 73-99zm17 164c33 0 40-30 41-66 1-37-9-64-41-64s-38 30-39 65c0 43 13 65 39 65" id="as"/><path fill="#3a414a" d="M25 0v-261h50V0H25" id="at"/><path fill="#3a414a" d="M137-138c1-29-70-34-71-4 15 46 118 7 119 86 1 83-164 76-172 9l43-7c4 19 20 25 44 25 33 8 57-30 24-41C81-84 22-81 20-136c-2-80 154-74 161-7" id="au"/><g id="p"><use transform="matrix(0.06172839506172839,0,0,0.06172839506172839,0,0)" xlink:href="#am"/><use transform="matrix(0.06172839506172839,0,0,0.06172839506172839,14.382716049382715,0)" xlink:href="#an"/><use transform="matrix(0.06172839506172839,0,0,0.06172839506172839,20.555555555555554,0)" xlink:href="#ao"/><use transform="matrix(0.06172839506172839,0,0,0.06172839506172839,32.901234567901234,0)" xlink:href="#ap"/><use transform="matrix(0.06172839506172839,0,0,0.06172839506172839,50.18518518518518,0)" xlink:href="#aq"/><use transform="matrix(0.06172839506172839,0,0,0.06172839506172839,68.64197530864197,0)" xlink:href="#ar"/><use transform="matrix(0.06172839506172839,0,0,0.06172839506172839,82.1604938271605,0)" xlink:href="#as"/><use transform="matrix(0.06172839506172839,0,0,0.06172839506172839,95.67901234567901,0)" xlink:href="#at"/><use transform="matrix(0.06172839506172839,0,0,0.06172839506172839,101.85185185185185,0)" xlink:href="#ao"/><use transform="matrix(0.06172839506172839,0,0,0.06172839506172839,114.19753086419753,0)" xlink:href="#au"/></g><g id="q"><use transform="matrix(0.06172839506172839,0,0,0.06172839506172839,0,0)" xlink:href="#r"/><use transform="matrix(0.06172839506172839,0,0,0.06172839506172839,14.382716049382715,0)" xlink:href="#s"/><use transform="matrix(0.06172839506172839,0,0,0.06172839506172839,19.25925925925926,0)" xlink:href="#t"/><use transform="matrix(0.06172839506172839,0,0,0.06172839506172839,31.604938271604937,0)" xlink:href="#u"/><use transform="matrix(0.06172839506172839,0,0,0.06172839506172839,47.59259259259259,0)" xlink:href="#B"/></g></defs></g></svg>